Coordinates
version=1
nRows=18
nColumns=22
inDegrees=yes

Units are S.I. units (second, meters, Newtons, ...)
If the header above contains a line with 'inDegrees', this indicates whether rotational values are in degrees (yes) or radians (no).

endheader
time	pelvis_tilt	pelvis_list	pelvis_rotation	pelvis_tx	pelvis_ty	pelvis_tz	hip_flexion_r	hip_adduction_r	hip_rotation_r	knee_angle_r	ankle_angle_r	subtalar_angle_r	hip_flexion_l	hip_adduction_l	hip_rotation_l	knee_angle_l	ankle_angle_l	subtalar_angle_l	lumbar_extension	lumbar_bending	lumbar_rotation
      1.68000000	     -2.76452655	     -3.43586428	    101.89943954	     -0.44526384	      0.89437068	      0.30641700	    -12.22053019	      4.92623267	      8.52345354	    -32.83420236	     -8.27243770	     -1.51558574	     31.21853566	      1.81296108	      9.11444699	    -33.19036092	      6.32594050	     12.15445481	      0.72431882	     -9.77581854	      1.07793312
      1.69000000	     -3.08352835	     -3.39637853	    101.04219359	     -0.44658628	      0.89653049	      0.29714759	    -10.27158712	      4.12884160	      6.55361619	    -36.44741471	    -11.15625253	     -1.01793624	     30.16893917	      1.80352467	      8.48034341	    -32.88930317	      6.91441742	     11.49895185	      0.43414744	    -10.12507523	      0.85888096
      1.70000000	     -3.44486906	     -3.34678799	    100.14173732	     -0.44783867	      0.89865992	      0.28829915	     -8.12935463	      3.14113500	      4.59624387	    -40.22148824	    -13.94526548	     -0.79362032	     29.10387368	      1.86536710	      7.83564526	    -32.53419330	      7.37705141	     10.83178908	      0.06720226	    -10.47639910	      0.62523689
      1.71000000	     -3.83827093	     -3.29558883	     99.19701223	     -0.44905147	      0.90069990	      0.27979794	     -5.83719012	      1.99992590	      2.78825231	    -44.06121738	    -16.46264821	     -0.67068439	     28.04291117	      1.99181565	      7.19310088	    -32.14390045	      7.82967713	     10.06484139	     -0.34517595	    -10.81963911	      0.40628954
      1.72000000	     -4.27301501	     -3.21643713	     98.23257149	     -0.45020828	      0.90269011	      0.27156317	     -3.49078460	      0.76249078	      1.23250814	    -47.84348423	    -18.49390779	     -0.41924642	     26.96983833	      2.18505844	      6.54386590	    -31.73668329	      8.18006756	      9.40353111	     -0.82423138	    -11.17917022	      0.16494633
      1.73000000	     -4.72545330	     -3.12501542	     97.25449411	     -0.45128868	      0.90459126	      0.26352460	     -1.10748113	     -0.48423429	     -0.00427943	    -51.49101497	    -19.82804808	     -0.01404053	     25.90727504	      2.41811677	      5.88671711	    -31.32024582	      8.50008454	      8.77473423	     -1.33014990	    -11.53990123	     -0.08662134
      1.74000000	     -5.16932694	     -3.01593785	     96.27728591	     -0.45226360	      0.90641881	      0.25563603	      1.28218160	     -1.65478130	     -0.91864315	    -54.93952320	    -20.34111401	      0.46337823	     24.85355302	      2.65519900	      5.21015254	    -30.89576306	      8.79303583	      8.20754603	     -1.85777999	    -11.87976841	     -0.36077787
      1.75000000	     -5.58370249	     -2.87964317	     95.30777256	     -0.45310870	      0.90821600	      0.24784548	      3.64432623	     -2.68905217	     -1.55202241	    -58.12225918	    -20.05961793	      0.80676633	     23.78699360	      2.87017897	      4.52059600	    -30.44883662	      9.07954565	      7.75888379	     -2.40332991	    -12.17641339	     -0.68468072
      1.76000000	     -5.95936151	     -2.73257006	     94.35764048	     -0.45374437	      0.90999375	      0.24012849	      5.98070202	     -3.56019981	     -1.98499523	    -60.99808304	    -19.06381105	      0.86772990	     22.70489394	      3.04432594	      3.80442833	    -29.94389261	      9.34067407	      7.39494885	     -2.94531327	    -12.44920802	     -1.04534887
      1.77000000	     -6.27360748	     -2.58350414	     93.43897928	     -0.45425852	      0.91172854	      0.23248172	      8.28759801	     -4.26365234	     -2.31486903	    -63.53850684	    -17.53382527	      0.44280016	     21.62480117	      3.17171013	      3.09823353	    -29.40661037	      9.64173186	      7.00598313	     -3.46561772	    -12.65476491	     -1.42528976
      1.78000000	     -6.55091162	     -2.37826331	     92.55001371	     -0.45459741	      0.91356068	      0.22485072	     10.47128525	     -4.81688475	     -2.57134079	    -65.69653651	    -15.63701933	     -0.24069343	     20.45734075	      3.25721895	      2.33940030	    -28.79037736	      9.85099633	      6.80290536	     -4.03037408	    -12.82926146	     -1.85605826
      1.79000000	     -6.73634947	     -2.14645506	     91.71596826	     -0.45481561	      0.91543934	      0.21720052	     12.53314878	     -5.17049660	     -2.82215991	    -67.44064285	    -13.52442601	     -1.29198896	     19.22197389	      3.27507661	      1.64699434	    -28.08419115	     10.11635828	      6.61867959	     -4.59231676	    -12.90394965	     -2.33875182
      1.80000000	     -6.86893821	     -1.87734015	     90.92465777	     -0.45490369	      0.91737004	      0.20954575	     14.45948450	     -5.37967946	     -3.07298300	    -68.78448373	    -11.40934425	     -2.35852333	     17.92010648	      3.25152399	      0.93379128	    -27.31508439	     10.33625254	      6.49737376	     -5.17463367	    -12.92968160	     -2.85786470
      1.81000000	     -6.95250905	     -1.57538819	     90.17784895	     -0.45487430	      0.91931268	      0.20188892	     16.24622407	     -5.45226377	     -3.32626623	    -69.73483659	     -9.39763130	     -3.35120425	     16.56178204	      3.19819570	      0.22075321	    -26.49814038	     10.55460324	      6.41397452	     -5.77457533	    -12.90972630	     -3.42136363
      1.82000000	     -6.94118083	     -1.26461162	     89.49946602	     -0.45474532	      0.92125256	      0.19415131	     17.87609526	     -5.35095913	     -3.62947203	    -70.25732022	     -7.49649746	     -4.29210703	     15.15701101	      3.07917312	     -0.41398799	    -25.61448175	     10.76319308	      6.33962631	     -6.34872260	    -12.79146827	     -4.01216866
      1.83000000	     -6.88615736	     -0.94137744	     88.87652739	     -0.45453133	      0.92311917	      0.18640412	     19.36907561	     -5.13856338	     -3.94563683	    -70.40386714	     -5.78299523	     -5.01014588	     13.74295685	      2.93867121	     -1.03804864	    -24.73439446	     10.96999572	      6.28715809	     -6.92184593	    -12.63105607	     -4.65765128
      1.84000000	     -6.79672009	     -0.61755532	     88.30147843	     -0.45423069	      0.92487000	      0.17863252	     20.73714531	     -4.83593609	     -4.26448866	    -70.19055990	     -4.26733126	     -5.43022388	     12.33772651	      2.78129694	     -1.66414812	    -23.86992879	     11.17538523	      6.25397715	     -7.47673296	    -12.43783048	     -5.34907803
      1.85000000	     -6.65556789	     -0.31870168	     87.80352287	     -0.45389482	      0.92645972	      0.17080698	     21.98892710	     -4.44791168	     -4.62628885	    -69.61905349	     -2.92401039	     -5.66729279	     10.96902437	      2.60159204	     -2.19496129	    -23.02548016	     11.40876979	      6.22756691	     -7.98452182	    -12.18547009	     -6.09291707
